<svg xmlns="http://www.w3.org/2000/svg" width="700" height="700" viewBox="0 0 700 700">
  <g id="safari-pinned-tab" transform="translate(-532 -619)">
    <path id="Path_172" data-name="Path 172" d="M0,0H700V700H0Z" transform="translate(532 619)"/>
    <g id="Layer-2" transform="translate(619.758 857.371)">
      <g id="Group_923" data-name="Group 923" transform="translate(0 0)">
        <g id="Group_922" data-name="Group 922">
          <g id="Group_920" data-name="Group 920" transform="translate(0 17.012)">
            <path id="Path_71" data-name="Path 71" d="M152.3,164.5c-34.828,1.212-62.613,15.344-62.051,31.523,1.435,8.06,3.219,16.012,5.35,23.918,3.338,12.385,7.261,24.572,10.333,37.03,5.924,24.019,9.8,48.668,18.987,71.754,2.793,7.014,6.108,13.851,9.231,20.719,4.445,9.772,8.9,19.866,17.2,27.065a43.736,43.736,0,0,0,3.515,2.833,49.138,49.138,0,0,0,5.717,3.619A79.7,79.7,0,0,0,171.762,388a157.224,157.224,0,0,0,18.149,4.616,116.642,116.642,0,0,0,12.9,1.573,148.738,148.738,0,0,0,20.247.263,136.366,136.366,0,0,0,42.275-8.708c22.337-8.632,40.224-24.507,57.067-41.07,15.72-15.455,30.815-32.058,48.729-45.055a143.11,143.11,0,0,1,18.934-11.487c5.361-12.787-12.6-32.518-40.125-44.059s-54.224-10.53-59.585,2.256a240.655,240.655,0,0,0-36.035,22.711c-5.074,3.9-9.755,8.229-14.529,12.484-2.867-11.4-5.515-22.855-8.6-34.2-5.054-18.57-11.383-36.729-14.844-55.7C215.784,175.441,187.132,163.291,152.3,164.5Z" transform="translate(-90.245 -164.419)" fill="gray"/>
          </g>
          <g id="Group_921" data-name="Group 921" transform="translate(162.581)">
            <path id="Path_72" data-name="Path 72" d="M485.218,154.385c-16.825.807-29.227,6.363-31.681,15.735-7.685,6.437-15.5,12.753-22.817,19.616a98.546,98.546,0,0,0-12.484,13.533,241.488,241.488,0,0,0-15.052,23.97c-3.362,5.985-6.568,11.994-9.389,18.253-8.921,19.791-15.841,40.424-25.125,60.056-1.7,3.6-3.619,7.122-5.507,10.648-.883-1.517-1.873-3-2.727-4.512-7.446-13.206-13.236-27.243-19.04-41.226-9.992-24.077-19.176-48.425-31.207-71.6-1.7-15.784-30.591-25.586-64.568-21.925s-60.132,19.411-58.432,35.2c14.982,29.057,25.274,60.135,38.29,90.059,1.432,3.291,2.776,6.611,4.3,9.861,3.607,7.691,7.721,15.155,12.065,22.449a126.522,126.522,0,0,0,15.526,21.61c11.047,11.932,24.819,21.232,39.548,28.01a166.782,166.782,0,0,0,42.852,12.9,187.109,187.109,0,0,0,56.648.629c23-3.313,45.619-11.42,63.573-26.488,15.3-12.84,26.365-29.766,35.456-47.364,6.991-13.53,12.9-27.584,18.726-41.646,4.062-9.811,7.944-19.76,12.692-29.269,1.994-3.991,4.247-7.82,6.452-11.7,1.939-3.407,3.938-6.841,6.084-10.123,1.7-2.593,3.557-5.129,5.351-7.657a29.421,29.421,0,0,1,3.565-3.724c1.811-1.769,3.659-3.471,5.561-5.14,5.4-4.737,11.049-9.213,16.575-13.8,3.926-15-19.07-33.982-51.35-42.433A114.411,114.411,0,0,0,485.218,154.385Z" transform="translate(-187.109 -154.284)" fill="gray"/>
          </g>
        </g>
      </g>
    </g>
  </g>
</svg>
